<svg clip-rule="evenodd" fill-rule="evenodd" height="64" image-rendering="optimizeQuality" shape-rendering="geometricPrecision" text-rendering="geometricPrecision" viewBox="0 0 64 64" width="64" xmlns="http://www.w3.org/2000/svg"><circle fill="#ffc106" r="22.97" transform="matrix(.543121 .145529 -.145529 .543121 32.0002 31.9993)"/><path d="m32 12.4v2m-9.8.63c.76 1.32 1 1.73 1 1.73m-8.17 5.44c1.32.76 1.73 1 1.73 1m-4.36 8.8h2m.63 9.8c1.32-.76 1.73-1 1.73-1m5.44 8.17c.76-1.32 1-1.73 1-1.73m8.8 4.36c0-1.53 0-2 0-2m9.8-.63c-.76-1.32-1-1.73-1-1.73m8.17-5.44c-1.32-.76-1.73-1-1.73-1m4.36-8.8c-1.53 0-2 0-2 0m-.63-9.8c-1.32.76-1.73 1-1.73 1m-5.44-8.17c-.76 1.32-1 1.73-1 1.73" style="stroke:#ffc106;stroke-width:2.5;stroke-linecap:round;stroke-linejoin:bevel;stroke-miterlimit:22.9256;fill:none"/></svg>