<svg clip-rule="evenodd" fill-rule="evenodd" height="64" image-rendering="optimizeQuality" shape-rendering="geometricPrecision" text-rendering="geometricPrecision" viewBox="0 0 64 64" width="64" xmlns="http://www.w3.org/2000/svg"><path d="m41.27 18.66c6.89 1.84 10.98 8.92 9.13 15.81-.65 2.43-1.95 4.51-3.66 6.11-1.51-2.79-4.45-4.68-7.84-4.68-.55 0-1.09.04-1.61.14-1.82-4.8-6.39-8.25-11.79-8.42 1.92-6.79 8.94-10.79 15.77-8.96z" fill="#ffc106"/><path d="m12.29 53.71h-.1c-3.85 0-6.97-3.11-6.97-6.96 0-3.81 3.05-6.9 6.85-6.97.45-6.8 6.1-12.17 13.02-12.17 5.58 0 10.34 3.5 12.2 8.43.52-.1 1.06-.14 1.61-.14 4.52 0 8.27 3.38 8.83 7.75 2.78 0 5.03 2.26 5.03 5.03 0 2.74-2.19 4.97-4.91 5.03h-.12-.07-8.67-.09-.12-13.56-.13-.14z" fill="#1ab5ed"/><path d="m55.52 39.85c.6.34.8 1.11.46 1.7-.34.6-1.1.8-1.7.46l-1.73-1c-.59-.34-.8-1.1-.46-1.7.35-.59 1.11-.8 1.7-.46zm-35.18-17.44c-.6-.34-.8-1.1-.46-1.7.34-.59 1.1-.8 1.7-.46l1.73 1c.59.34.8 1.1.45 1.7-.34.6-1.1.8-1.69.46zm6.71-7.63c-.34-.6-.13-1.36.46-1.7.6-.34 1.36-.14 1.7.46l1 1.73c.34.59.13 1.36-.46 1.7-.6.34-1.36.13-1.7-.46zm9.63-3.25c0-.69.56-1.25 1.25-1.25s1.25.56 1.25 1.25v2c0 .69-.56 1.25-1.25 1.25s-1.25-.56-1.25-1.25zm9.97 2c.35-.59 1.11-.79 1.7-.45.6.35.8 1.11.46 1.7l-1 1.73c-.35.6-1.11.8-1.71.46-.59-.35-.79-1.11-.45-1.71zm7.63 6.72c.6-.34 1.36-.13 1.7.46.34.6.14 1.36-.46 1.7l-1.73 1c-.59.34-1.35.14-1.7-.46-.34-.6-.13-1.36.46-1.7zm3.25 9.63c.69 0 1.25.56 1.25 1.25s-.56 1.25-1.25 1.25h-2c-.69 0-1.25-.56-1.25-1.25s.56-1.25 1.25-1.25z" fill="#ffc106" fill-rule="nonzero"/></svg>