<svg clip-rule="evenodd" fill-rule="evenodd" height="64" image-rendering="optimizeQuality" shape-rendering="geometricPrecision" text-rendering="geometricPrecision" viewBox="0 0 64 64" width="64" xmlns="http://www.w3.org/2000/svg"><path d="m10.37 43.75c-.2-.05-.4-.1-.59-.16.19.06.39.11.59.16zm-.97-.29c-.38-.14-.74-.3-1.09-.49.35.19.71.35 1.09.49zm-1.09-.49c-1.39-.76-2.54-1.91-3.3-3.3.76 1.39 1.91 2.54 3.3 3.3zm-3.3-3.3c-.19-.35-.35-.72-.49-1.09.14.37.3.74.49 1.09zm-.62-1.48c-.06-.19-.11-.38-.16-.58.05.2.1.39.16.58zm7.68-10.63c.1-1.5.42-2.93.91-4.28-.49 1.35-.8 2.78-.9 4.28zm19.25-13.83c1.41-2.09 3.79-3.47 6.51-3.47 3.96 0 7.24 2.94 7.75 6.76.48-.06.96-.09 1.45-.09 6.05 0 10.95 4.9 10.95 10.95 0 1.77-.42 3.43-1.16 4.91-.82-.43-1.76-.68-2.76-.68-.66-5.15-5.06-9.13-10.4-9.13-.64 0-1.27.06-1.88.17-1.75-4.61-5.64-8.15-10.46-9.42z" fill="#0e6096"/><path d="m12.22 43.96c-4.53 0-8.2-3.67-8.2-8.2 0-4.48 3.59-8.13 8.06-8.2.53-8.01 7.19-14.33 15.32-14.33 6.57 0 12.18 4.12 14.37 9.92.62-.11 1.25-.17 1.89-.17 5.33 0 9.74 3.98 10.4 9.13 3.27 0 5.92 2.65 5.92 5.92 0 3.23-2.57 5.85-5.77 5.93-14 .19-27.99 0-41.99 0z" fill="#1ab5ed"/><path d="m25.6 20.07c.28-.63 1.02-.91 1.65-.63.63.29.91 1.03.63 1.65l-5.6 12.4h8.41c.69 0 1.25.56 1.25 1.25 0 .2-.04.39-.13.56l-6.78 17.64c-.25.64-.97.96-1.61.72-.64-.25-.96-.97-.72-1.61l6.18-16.06h-8.54c-.17 0-.34-.04-.51-.11-.63-.28-.91-1.02-.63-1.65z" fill="#e62129"/></svg>