<svg clip-rule="evenodd" fill-rule="evenodd" height="64" image-rendering="optimizeQuality" shape-rendering="geometricPrecision" text-rendering="geometricPrecision" viewBox="0 0 64 64" width="64" xmlns="http://www.w3.org/2000/svg"><path d="m33.27 13.37c6.39 1.71 10.18 8.28 8.47 14.67-.06.2-.12.41-.18.61-1.95-.7-4.04-1.09-6.23-1.09-5.35 0-10.16 2.31-13.5 5.97-3.01-2.92-4.4-7.35-3.23-11.69 1.71-6.39 8.28-10.19 14.67-8.47z" fill="#ffc106"/><path d="m28.92 6.76c0-.69.56-1.25 1.25-1.25s1.25.56 1.25 1.25v1.85c0 .69-.56 1.25-1.25 1.25s-1.25-.56-1.25-1.25zm-8.92 3.06c-.34-.6-.14-1.36.46-1.7.59-.34 1.36-.14 1.7.45l.92 1.61c.35.59.14 1.36-.45 1.7-.6.34-1.36.13-1.7-.46zm-6.19 7.11c-.6-.35-.8-1.11-.46-1.7.34-.6 1.1-.8 1.7-.46l1.6.92c.6.35.8 1.11.46 1.7-.34.6-1.1.8-1.7.46zm-1.82 9.26c-.69 0-1.25-.56-1.25-1.25s.56-1.25 1.25-1.25h1.85c.69 0 1.25.56 1.25 1.25s-.56 1.25-1.25 1.25zm3.06 8.91c-.6.34-1.36.14-1.7-.46-.34-.59-.14-1.35.46-1.7l1.6-.92c.6-.34 1.36-.14 1.7.46.34.59.14 1.35-.46 1.7zm33.29-11.41c.69 0 1.25.56 1.25 1.25s-.56 1.25-1.25 1.25h-1.85c-.69 0-1.25-.56-1.25-1.25s.56-1.25 1.25-1.25zm-3.05-8.92c.59-.34 1.36-.14 1.7.46.34.59.13 1.35-.46 1.7l-1.61.92c-.59.34-1.35.14-1.69-.46-.34-.59-.14-1.35.45-1.7zm-7.11-6.2c.34-.59 1.1-.79 1.7-.45.59.34.8 1.1.45 1.7l-.92 1.6c-.34.59-1.11.8-1.7.46-.6-.34-.8-1.11-.46-1.7z" fill="#ffc106" fill-rule="nonzero"/><path d="m35.33 27.56c-8.89 0-16.3 6.36-17.93 14.78 2.92.31 5.63 1.32 7.97 2.84 2.49-1.62 5.41-2.66 8.55-2.9v12.5c0 1.09.56 2.06 1.46 2.73.8.6 1.89.98 3.06.98s2.25-.38 3.05-.98c.91-.67 1.47-1.64 1.47-2.73 0-.69-.56-1.25-1.25-1.25s-1.25.56-1.25 1.25c0 .27-.18.53-.46.74-.38.29-.94.47-1.56.47-.63 0-1.18-.18-1.56-.47-.29-.21-.46-.47-.46-.74v-12.52c3.26.19 6.29 1.24 8.87 2.92 2.34-1.52 5.05-2.53 7.97-2.84-1.63-8.42-9.04-14.78-17.93-14.78z" fill="#0e6096"/></svg>