<svg clip-rule="evenodd" fill-rule="evenodd" height="64" image-rendering="optimizeQuality" shape-rendering="geometricPrecision" text-rendering="geometricPrecision" viewBox="0 0 64 64" width="64" xmlns="http://www.w3.org/2000/svg"><path d="m10.37 48.6c-.2-.05-.4-.1-.59-.16.19.06.39.11.59.16zm-.97-.29c-.38-.14-.74-.3-1.09-.49.35.19.71.35 1.09.49zm-1.09-.49c-1.39-.76-2.54-1.91-3.3-3.3.76 1.39 1.91 2.54 3.3 3.3zm-3.3-3.3c-.19-.35-.35-.72-.49-1.09.14.37.3.74.49 1.09zm-.62-1.48c-.06-.19-.11-.38-.16-.58.05.2.1.39.16.58zm7.68-10.63c.1-1.5.42-2.94.91-4.28-.49 1.34-.8 2.78-.9 4.28zm19.25-13.83c1.41-2.09 3.79-3.47 6.51-3.47 3.96 0 7.24 2.94 7.75 6.76.48-.06.96-.09 1.45-.09 6.05 0 10.95 4.9 10.95 10.95 0 1.77-.42 3.43-1.16 4.91-.82-.43-1.76-.68-2.76-.68-.66-5.15-5.06-9.13-10.4-9.13-.64 0-1.27.06-1.88.17-1.75-4.61-5.64-8.15-10.46-9.42z" fill="#0e6096"/><path d="m12.22 48.81c-4.53 0-8.2-3.67-8.2-8.2 0-4.48 3.59-8.13 8.06-8.2.53-8.01 7.19-14.33 15.32-14.33 6.57 0 12.18 4.12 14.37 9.92.62-.11 1.25-.17 1.89-.17 5.33 0 9.74 3.98 10.4 9.13 3.27 0 5.92 2.65 5.92 5.92 0 3.23-2.57 5.85-5.77 5.92-14 .2-27.99.01-41.99.01z" fill="#1ab5ed"/></svg>