<svg clip-rule="evenodd" fill-rule="evenodd" height="64" image-rendering="optimizeQuality" shape-rendering="geometricPrecision" text-rendering="geometricPrecision" width="64" xmlns="http://www.w3.org/2000/svg"><g fill="#ffc106"><path d="M43.02 17.04c5.97 1.6 9.83 7.12 9.57 13.05a10.873 10.873 0 0 0-6.1-1.86c-.49 0-.98.03-1.45.09a7.825 7.825 0 0 0-7.76-6.76 7.83 7.83 0 0 0-6.52 3.49c-.97-.25-1.98-.41-3.01-.47 2.43-5.91 8.93-9.24 15.27-7.54z"/><path d="M38.43 9.92a1.25 1.25 0 0 1 2.5 0v1.99a1.25 1.25 0 0 1-2.5 0zm9.97 2c.35-.6 1.11-.8 1.71-.46.59.35.79 1.11.45 1.71l-1 1.73a1.248 1.248 0 1 1-2.16-1.25zm7.63 6.72c.6-.34 1.36-.14 1.7.46.34.59.14 1.35-.46 1.69l-1.73 1c-.59.34-1.35.14-1.69-.46-.35-.59-.14-1.35.45-1.7zm3.25 9.62a1.25 1.25 0 0 1 0 2.5h-2a1.25 1.25 0 0 1 0-2.5zm-37.19-7.47c-.6-.34-.8-1.1-.46-1.69.34-.6 1.1-.8 1.7-.46l1.73.99c.59.35.8 1.11.46 1.7-.35.6-1.11.8-1.7.46zm6.71-7.63c-.34-.59-.13-1.35.46-1.7.6-.34 1.36-.13 1.7.46l1 1.73a1.245 1.245 0 1 1-2.16 1.24z" fill-rule="nonzero"/></g><path d="M9.82 55.04zm-.97-.29zm-1.09-.49zm-3.3-3.31zm-.62-1.47zm7.68-10.64c.1-1.49.42-2.93.91-4.27-.49 1.34-.8 2.78-.9 4.27zm19.25-13.82a7.845 7.845 0 0 1 6.51-3.47c3.96 0 7.24 2.94 7.75 6.76.48-.06.96-.09 1.45-.09 6.05 0 10.95 4.9 10.95 10.95 0 1.77-.42 3.43-1.16 4.91-.82-.43-1.76-.68-2.76-.68a10.48 10.48 0 0 0-12.28-8.96 15.41 15.41 0 0 0-10.46-9.42z" fill="#0e6096"/><path d="M11.67 55.25c-4.53 0-8.2-3.68-8.2-8.2a8.21 8.21 0 0 1 8.06-8.21c.53-8 7.19-14.32 15.33-14.32 6.57 0 12.17 4.12 14.37 9.92.61-.11 1.24-.17 1.88-.17 5.33 0 9.74 3.98 10.4 9.13a5.92 5.92 0 0 1 5.92 5.92c0 3.23-2.57 5.85-5.77 5.92-14 .2-27.99.01-41.99.01z" fill="#1ab5ed"/></svg>