<svg clip-rule="evenodd" fill-rule="evenodd" height="64" image-rendering="optimizeQuality" shape-rendering="geometricPrecision" text-rendering="geometricPrecision" width="64" xmlns="http://www.w3.org/2000/svg"><path d="M22.3 46.27c.24-.64.96-.96 1.6-.72.65.24.97.96.73 1.6l-1.52 4.05c-.24.64-.96.97-1.61.72-.64-.24-.97-.96-.73-1.6zm9.91.01c.24-.64.96-.97 1.6-.73s.97.96.73 1.6l-2.79 7.52c-.24.64-.96.97-1.6.73a1.24 1.24 0 0 1-.73-1.6zm8.64-.01c.24-.64.96-.96 1.61-.72.64.24.96.96.72 1.6l-1.52 4.05c-.24.64-.96.97-1.61.72-.64-.24-.97-.96-.72-1.6z" fill="#0e6096" fill-rule="nonzero"/><path d="M10.36 42.01c-.19-.05-.39-.1-.58-.16.19.06.39.11.58.16zm-.96-.29zm-1.09-.49zm-3.3-3.3zm-.62-1.47c-.06-.19-.11-.39-.16-.59.05.2.1.4.16.59zm7.68-10.64c.1-1.5.41-2.93.91-4.28-.49 1.35-.81 2.78-.91 4.28zm19.25-13.83a7.818 7.818 0 0 1 6.51-3.47c3.96 0 7.23 2.94 7.75 6.77.48-.07.96-.1 1.45-.1 6.05 0 10.95 4.9 10.95 10.95 0 1.77-.42 3.44-1.16 4.91-.82-.43-1.76-.68-2.76-.68-.66-5.15-5.07-9.13-10.4-9.13-.64 0-1.27.06-1.89.17-1.74-4.6-5.63-8.15-10.45-9.42z" fill="#0e6096"/><path d="M12.22 42.22c-4.53 0-8.2-3.67-8.2-8.2a8.2 8.2 0 0 1 8.05-8.2c.54-8.01 7.2-14.33 15.33-14.33 6.57 0 12.18 4.12 14.37 9.92a10.8 10.8 0 0 1 1.89-.17c5.33 0 9.74 3.98 10.4 9.13 3.27 0 5.92 2.66 5.92 5.92 0 3.23-2.57 5.85-5.77 5.93-14 .19-28 0-41.99 0z" fill="#1ab5ed"/></svg>