<svg clip-rule="evenodd" fill-rule="evenodd" height="64" image-rendering="optimizeQuality" shape-rendering="geometricPrecision" text-rendering="geometricPrecision" width="64" xmlns="http://www.w3.org/2000/svg"><path d="M41.27 18.66c6.89 1.84 10.98 8.92 9.13 15.81-.65 2.43-1.95 4.51-3.66 6.11a8.9 8.9 0 0 0-7.84-4.68c-.55 0-1.09.04-1.61.14-1.82-4.8-6.39-8.25-11.79-8.42 1.92-6.79 8.94-10.79 15.77-8.96z" fill="#ffc106"/><path d="M12.29 53.71h-.1a6.96 6.96 0 0 1-6.97-6.96c0-3.81 3.05-6.9 6.85-6.97.45-6.8 6.1-12.17 13.02-12.17 5.58 0 10.34 3.5 12.2 8.43.52-.1 1.06-.14 1.61-.14 4.52 0 8.27 3.38 8.83 7.75 2.78 0 5.03 2.26 5.03 5.03a5.03 5.03 0 0 1-4.91 5.03h-22.9z" fill="#1ab5ed"/><path d="M55.52 39.85a1.245 1.245 0 1 1-1.24 2.16l-1.73-1c-.59-.34-.8-1.1-.46-1.7.35-.59 1.11-.8 1.7-.46zM20.34 22.41c-.6-.34-.8-1.1-.46-1.7.34-.59 1.1-.8 1.7-.46l1.73 1c.59.34.8 1.1.45 1.7-.34.6-1.1.8-1.69.46zm6.71-7.63c-.34-.6-.13-1.36.46-1.7.6-.34 1.36-.14 1.7.46l1 1.73c.34.59.13 1.36-.46 1.7-.6.34-1.36.13-1.7-.46zm9.63-3.25a1.25 1.25 0 0 1 2.5 0v2a1.25 1.25 0 0 1-2.5 0zm9.97 2a1.248 1.248 0 1 1 2.16 1.25l-1 1.73c-.35.6-1.11.8-1.71.46-.59-.35-.79-1.11-.45-1.71zm7.63 6.72c.6-.34 1.36-.13 1.7.46.34.6.14 1.36-.46 1.7l-1.73 1c-.59.34-1.35.14-1.7-.46-.34-.6-.13-1.36.46-1.7zm3.25 9.63a1.25 1.25 0 0 1 0 2.5h-2a1.25 1.25 0 0 1 0-2.5z" fill="#ffc106" fill-rule="nonzero"/></svg>