<svg clip-rule="evenodd" fill-rule="evenodd" height="64" image-rendering="optimizeQuality" shape-rendering="geometricPrecision" text-rendering="geometricPrecision" viewBox="0 0 64 64" width="64" xmlns="http://www.w3.org/2000/svg"><g fill="#ffc106"><path d="m43.02 17.04c5.97 1.6 9.83 7.12 9.57 13.05-1.75-1.18-3.85-1.86-6.1-1.86-.49 0-.98.03-1.45.09-.52-3.82-3.79-6.76-7.76-6.76-2.72 0-5.12 1.39-6.52 3.49-.97-.25-1.98-.41-3.01-.47 2.43-5.91 8.93-9.24 15.27-7.54z"/><path d="m38.43 9.92c0-.69.56-1.25 1.25-1.25s1.25.56 1.25 1.25v1.99c0 .69-.56 1.25-1.25 1.25s-1.25-.56-1.25-1.25z" fill-rule="nonzero"/><path d="m48.4 11.92c.35-.6 1.11-.8 1.71-.46.59.35.79 1.11.45 1.71l-1 1.73c-.35.59-1.11.79-1.7.45-.6-.35-.8-1.11-.46-1.7z" fill-rule="nonzero"/><path d="m56.03 18.64c.6-.34 1.36-.14 1.7.46.34.59.14 1.35-.46 1.69l-1.73 1c-.59.34-1.35.14-1.69-.46-.35-.59-.14-1.35.45-1.7z" fill-rule="nonzero"/><path d="m59.28 28.26c.69 0 1.25.56 1.25 1.25s-.56 1.25-1.25 1.25h-2c-.69 0-1.25-.56-1.25-1.25s.56-1.25 1.25-1.25z" fill-rule="nonzero"/><path d="m22.09 20.79c-.6-.34-.8-1.1-.46-1.69.34-.6 1.1-.8 1.7-.46l1.73.99c.59.35.8 1.11.46 1.7-.35.6-1.11.8-1.7.46z" fill-rule="nonzero"/><path d="m28.8 13.16c-.34-.59-.13-1.35.46-1.7.6-.34 1.36-.13 1.7.46l1 1.73c.34.6.14 1.36-.46 1.7-.59.34-1.36.14-1.7-.46z" fill-rule="nonzero"/></g><path d="m9.82 55.04c-.2-.05-.39-.1-.59-.16.2.06.39.11.59.16zm-.97-.29c-.37-.14-.74-.3-1.09-.49.35.19.72.35 1.09.49zm-1.09-.49c-1.39-.76-2.54-1.91-3.3-3.3.76 1.39 1.91 2.54 3.3 3.3zm-3.3-3.31c-.19-.34-.35-.71-.49-1.08.14.37.3.74.49 1.08zm-.62-1.47c-.06-.19-.11-.38-.16-.58.05.2.1.39.16.58zm7.68-10.64c.1-1.49.42-2.93.91-4.27-.49 1.34-.8 2.78-.9 4.27zm19.25-13.82c1.41-2.09 3.8-3.47 6.51-3.47 3.96 0 7.24 2.94 7.75 6.76.48-.06.96-.09 1.45-.09 6.05 0 10.95 4.9 10.95 10.95 0 1.77-.42 3.43-1.16 4.91-.82-.43-1.76-.68-2.76-.68-.66-5.15-5.06-9.13-10.4-9.13-.64 0-1.27.06-1.88.17-1.75-4.61-5.64-8.15-10.46-9.42z" fill="#0e6096"/><path d="m11.67 55.25c-4.53 0-8.2-3.68-8.2-8.2 0-4.48 3.59-8.13 8.06-8.21.53-8 7.19-14.32 15.33-14.32 6.57 0 12.17 4.12 14.37 9.92.61-.11 1.24-.17 1.88-.17 5.33 0 9.74 3.98 10.4 9.13 3.27 0 5.92 2.65 5.92 5.92 0 3.23-2.57 5.85-5.77 5.92-14 .2-27.99.01-41.99.01z" fill="#1ab5ed"/></svg>